PathFileType	4	(X/Y/Z)	/Users/itak/Documents/Research/Walk-IL/dataset/trc/00500_00183.trc
DataRate	CameraRate	NumFrames	NumMarkers	Units	OrigDataRate	OrigDataStartFrame	OrigNumFrames
100.000000	100.000000	4	53	mm	100.000000	359	718
Frame#	Time	RPSI			LPSI			L3			STRN			T10			C7			CLAV			RBAK			LBAK			LSHO			LUPA			LAEL			LAOL			LWTS			LWPS			LFRA			LIFD			LHPS			LHTS			RSHO			RUPA			RAEL			RAOL			RWTS			RWPS			RFRA			RIFD			RHTS			RHPS			RBHD			LFHD			RFHD			LBHD			LHIP			RHIP			RASI			LASI			LKNE			LTHI			LANK			LTIP			LTOE			LMT1			LMT5			LHEE			RKNE			RTHI			RANK			RTIP			RTOE			RMT1			RMT5			RHEE			
		X1	Y1	Z1	X2	Y2	Z2	X3	Y3	Z3	X4	Y4	Z4	X5	Y5	Z5	X6	Y6	Z6	X7	Y7	Z7	X8	Y8	Z8	X9	Y9	Z9	X10	Y10	Z10	X11	Y11	Z11	X12	Y12	Z12	X13	Y13	Z13	X14	Y14	Z14	X15	Y15	Z15	X16	Y16	Z16	X17	Y17	Z17	X18	Y18	Z18	X19	Y19	Z19	X20	Y20	Z20	X21	Y21	Z21	X22	Y22	Z22	X23	Y23	Z23	X24	Y24	Z24	X25	Y25	Z25	X26	Y26	Z26	X27	Y27	Z27	X28	Y28	Z28	X29	Y29	Z29	X30	Y30	Z30	X31	Y31	Z31	X32	Y32	Z32	X33	Y33	Z33	X34	Y34	Z34	X35	Y35	Z35	X36	Y36	Z36	X37	Y37	Z37	X38	Y38	Z38	X39	Y39	Z39	X40	Y40	Z40	X41	Y41	Z41	X42	Y42	Z42	X43	Y43	Z43	X44	Y44	Z44	X45	Y45	Z45	X46	Y46	Z46	X47	Y47	Z47	X48	Y48	Z48	X49	Y49	Z49	X50	Y50	Z50	X51	Y51	Z51	X52	Y52	Z52	X53	Y53	Z53	

360	3.59	-448.6234741210938	956.8134155273438	-130.1932830810547	-382.6455078125	958.7230224609375	-235.6716003417969	-420.4656677246094	1028.589111328125	-180.9564971923828	-233.2211608886719	1190.61572265625	-84.67325592041016	-440.7509460449219	1131.739379882812	-178.9465789794922	-409.5774536132812	1361.69873046875	-152.4079437255859	-267.5615844726562	1284.917724609375	-96.89024353027344	-485.7747802734375	1237.155517578125	-95.56085968017578	-398.6839904785156	1310.295532226562	-244.4322967529297	-283.18994140625	1358.42333984375	-274.24169921875	-265.666748046875	1234.74365234375	-338.3677062988281	-238.9870300292969	1026.149780273438	-363.861572265625	-331.5777282714844	1013.243286132812	-333.4447021484375	-161.4994049072266	842.78271484375	-294.6675415039062	-218.1802520751953	803.3484497070312	-357.92919921875	-218.4979553222656	944.5516967773438	-357.2685852050781	-155.556640625	686.3256225585938	-278.209716796875	-194.7326965332031	750.1065063476562	-342.9014587402344	-142.4130859375	765.2782592773438	-306.6298217773438	-415.2508544921875	1350.80224609375	6.069456100463867	-451.0661010742188	1281.465209960938	50.53083801269531	-458.7227478027344	1012.708190917969	87.44384765625	-493.6626586914062	997.91650390625	32.98263549804688	-349.0024719238281	811.6689453125	83.54794311523438	-435.9586486816406	788.2111206054688	102.9724807739258	-455.7592468261719	957.98291015625	94.093505859375	-346.8919677734375	652.1688842773438	77.42178344726562	-342.6925048828125	716.6946411132812	106.9800033569336	-414.0148620605469	714.1056518554688	107.4444580078125	-394.3926391601562	1519.235717773438	-52.86470794677734	-217.4624938964844	1570.127319335938	-132.9927062988281	-269.4578247070312	1565.123413085938	-16.84384346008301	-341.5757141113281	1523.260009765625	-205.3084564208984	-216.7502288818359	892.1551513671875	-286.9967956542969	-427.6666870117188	852.1447143554688	26.78009605407715	-306.8035583496094	899.0503540039062	28.98183822631836	-183.0781860351562	925.2495727539062	-177.7964019775391	-164.1459045410156	477.3290405273438	-187.3790893554688	-166.9476165771484	631.7060546875	-229.8775482177734	-214.5428009033203	44.95433807373047	-185.4607849121094	-166.83447265625	321.440185546875	-188.1318664550781	-64.92108917236328	40.00260162353516	-41.78818130493164	-147.8555450439453	44.32640838623047	-47.39487457275391	-114.9497680664062	42.90940475463867	-144.5465698242188	-282.0161743164062	44.37405395507812	-147.5126190185547	-419.0907592773438	470.1482238769531	-6.357741355895996	-406.0539855957031	722.726806640625	37.93855285644531	-693.3681640625	146.938720703125	-134.1998901367188	-475.5994873046875	342.2213745117188	-36.82405090332031	-538.3497314453125	37.96032333374023	-135.5408020019531	-570.2435302734375	75.12461853027344	-183.9343414306641	-623.0274658203125	63.85253524780273	-100.849983215332	-714.0482177734375	184.1903839111328	-190.0057525634766	
361	3.6	-443.0816040039062	956.7994384765625	-129.8223266601562	-376.5495910644531	959.1331787109375	-234.9412231445312	-414.5880126953125	1029.065063476562	-180.5672607421875	-227.3568725585938	1191.182373046875	-83.75992584228516	-434.5846557617188	1132.262084960938	-178.5892333984375	-403.5991821289062	1362.212280273438	-152.0076446533203	-261.7020263671875	1285.447143554688	-96.06211090087891	-479.9296569824219	1237.632690429688	-95.36759185791016	-392.3808898925781	1310.804565429688	-244.0492401123047	-276.7685546875	1358.9814453125	-273.3774108886719	-258.84521484375	1235.393310546875	-337.544921875	-231.1423187255859	1026.713256835938	-362.6070861816406	-324.2323913574219	1013.762023925781	-333.27099609375	-154.6489410400391	843.98583984375	-291.5945129394531	-208.7182006835938	804.5890502929688	-357.1542663574219	-210.5342254638672	945.4182739257812	-355.7619934082031	-147.2085876464844	687.5291137695312	-276.5746459960938	-185.101806640625	751.5411376953125	-341.9253234863281	-134.2816162109375	766.9607543945312	-303.6886901855469	-409.6952819824219	1351.282104492188	6.452596664428711	-445.5610656738281	1281.879150390625	50.80100631713867	-452.7034301757812	1013.134887695312	87.88307952880859	-487.470458984375	998.1607055664062	33.36890029907227	-341.9402465820312	812.7637939453125	84.57323455810547	-428.8531799316406	788.8088989257812	103.8638610839844	-449.5245361328125	958.4039306640625	94.59868621826172	-338.8353881835938	653.2649536132812	78.99342346191406	-335.1206665039062	717.897216796875	108.3435821533203	-406.4326782226562	714.8667602539062	108.6160049438477	-389.1058044433594	1519.444702148438	-52.20273971557617	-212.1469268798828	1571.087890625	-131.6630706787109	-264.4653930664062	1565.697509765625	-15.69217300415039	-335.8420715332031	1523.884155273438	-204.4442443847656	-210.4494476318359	892.5695190429688	-285.6534423828125	-421.9475402832031	852.252197265625	27.47035026550293	-301.6828308105469	899.7565307617188	29.93210983276367	-177.0378723144531	925.6063842773438	-176.4482116699219	-160.7436218261719	476.9998474121094	-187.1350708007812	-162.3183898925781	631.697021484375	-229.0678863525391	-214.3447723388672	44.87661361694336	-185.5019226074219	-164.6692657470703	321.06884765625	-187.9712066650391	-64.63545227050781	39.32263946533203	-41.72586822509766	-147.6449737548828	44.20778274536133	-47.48102951049805	-114.7250061035156	42.53481292724609	-144.5447845458984	-281.9521789550781	44.52391815185547	-147.55419921875	-408.4345703125	469.7450561523438	-1.008675217628479	-399.6513366699219	723.0576782226562	39.51139831542969	-687.1258544921875	153.4729309082031	-131.1229248046875	-465.701904296875	343.4744873046875	-31.7548713684082	-535.5636596679688	37.29152297973633	-133.1268768310547	-565.9385986328125	77.95227813720703	-181.1561584472656	-619.8385620117188	67.49789428710938	-98.70360565185547	-706.4374389648438	191.8633270263672	-186.6315002441406	
362	3.61	-437.7132568359375	956.7510986328125	-129.3998870849609	-370.6954956054688	959.5001220703125	-234.1603851318359	-408.9346008300781	1029.517700195312	-180.1760559082031	-221.6157836914062	1191.700561523438	-82.84577178955078	-428.603271484375	1132.789672851562	-178.2127685546875	-397.7076110839844	1362.720336914062	-151.5920257568359	-255.935302734375	1285.93896484375	-95.23432922363281	-474.1960144042969	1238.12548828125	-95.14510345458984	-386.177978515625	1311.309204101562	-243.6667022705078	-270.450927734375	1359.496215820312	-272.5131530761719	-252.0883636474609	1235.9921875	-336.6971740722656	-223.2396392822266	1027.266723632812	-361.2287902832031	-316.865234375	1014.22607421875	-333.1756591796875	-147.9894714355469	845.0922241210938	-288.3310546875	-199.2137451171875	805.790771484375	-356.2830505371094	-202.5141448974609	946.2664794921875	-354.1414489746094	-139.0788269042969	688.6223754882812	-274.9068603515625	-175.4182891845703	752.987060546875	-340.8756408691406	-126.3117065429688	768.5630493164062	-300.5456848144531	-404.2178955078125	1351.760986328125	6.853426933288574	-440.1334228515625	1282.295532226562	51.0989875793457	-446.7442016601562	1013.546203613281	88.34048461914062	-481.3494567871094	998.395751953125	33.77637481689453	-334.9100341796875	813.8871459960938	85.64381408691406	-421.7606506347656	789.4066162109375	104.7510375976562	-443.3409729003906	958.8157348632812	95.10981750488281	-330.7058410644531	654.40478515625	80.62525939941406	-327.5427551269531	719.1463012695312	109.76513671875	-398.8343505859375	715.6388549804688	109.8057174682617	-383.8582153320312	1519.632568359375	-51.53173065185547	-206.8609466552734	1571.994995117188	-130.3008575439453	-259.5021667480469	1566.222412109375	-14.5070858001709	-330.1278381347656	1524.483154296875	-203.5593414306641	-204.4134063720703	892.9080200195312	-284.3259887695312	-416.3936462402344	852.3880004882812	28.21682357788086	-296.6690673828125	900.4743041992188	30.85229873657227	-171.1796875	925.9388427734375	-175.1660919189453	-157.4797973632812	476.6708068847656	-186.8029632568359	-157.8389587402344	631.6630249023438	-228.1782379150391	-214.1698608398438	44.818359375	-185.5316925048828	-162.6513214111328	320.6972961425781	-187.7812347412109	-64.39914703369141	38.78268432617188	-41.697998046875	-147.4622192382812	44.11789703369141	-47.55301284790039	-114.5354385375977	42.18455123901367	-144.5503997802734	-281.8953552246094	44.65317916870117	-147.5802612304688	-397.722412109375	469.4819946289062	4.316950798034668	-393.2994079589844	723.4329223632812	41.13102722167969	-680.3524169921875	159.9798583984375	-128.1239471435547	-455.5698547363281	344.815185546875	-26.71083068847656	-532.1514282226562	36.83152770996094	-129.8488464355469	-560.8775634765625	80.76866149902344	-177.7774200439453	-616.0912475585938	71.58303070068359	-96.14611053466797	-698.25732421875	199.1652526855469	-183.5364532470703	
363	3.62	-432.5019836425781	956.69580078125	-128.9205017089844	-365.0716857910156	959.8233032226562	-233.3347320556641	-403.486572265625	1029.953979492188	-179.7797393798828	-215.9960327148438	1192.185913085938	-81.93214416503906	-422.8031616210938	1133.326538085938	-177.8191223144531	-391.9082641601562	1363.232055664062	-151.1605682373047	-250.2670288085938	1286.40869140625	-94.40753936767578	-468.5732421875	1238.6396484375	-94.89199829101562	-380.0842590332031	1311.820434570312	-243.2809295654297	-264.2428283691406	1359.982421875	-271.6483459472656	-245.4045715332031	1236.553466796875	-335.8192443847656	-215.3270416259766	1027.833984375	-359.7269592285156	-309.4902038574219	1014.649169921875	-333.1431884765625	-141.5323944091797	846.1017456054688	-284.9154357910156	-189.6536712646484	807.00390625	-355.3128356933594	-194.455078125	947.1113891601562	-352.4012756347656	-131.2146301269531	689.6091918945312	-273.1993103027344	-165.7242584228516	754.447021484375	-339.7218933105469	-118.5355682373047	770.0657348632812	-297.2205505371094	-398.8260192871094	1352.249877929688	7.273756980895996	-434.7868347167969	1282.72705078125	51.42753982543945	-440.8390197753906	1013.955200195312	88.82257843017578	-475.31103515625	998.6356201171875	34.2188720703125	-327.9273681640625	815.0413208007812	86.75746154785156	-414.6939392089844	790.0123291015625	105.630729675293	-437.2098388671875	959.234130859375	95.63322448730469	-322.5321350097656	655.5936889648438	82.28839111328125	-319.98291015625	720.4412231445312	111.2256546020508	-391.2424926757812	716.4261474609375	110.9973907470703	-378.6480102539062	1519.817138671875	-50.84804534912109	-201.5923309326172	1572.846557617188	-128.9020538330078	-254.5631561279297	1566.700927734375	-13.28421592712402	-324.4310302734375	1525.072509765625	-202.6515502929688	-198.6300964355469	893.1769409179688	-283.0270385742188	-410.99951171875	852.585693359375	29.04281997680664	-291.7356872558594	901.2262573242188	31.73980903625488	-165.4917297363281	926.2628784179688	-173.95556640625	-154.4126892089844	476.34375	-186.3954925537109	-153.5278930664062	631.6038818359375	-227.2092590332031	-214.0216369628906	44.77956008911133	-185.5446319580078	-160.8044128417969	320.3367919921875	-187.5815887451172	-64.20563507080078	38.35839080810547	-41.69647598266602	-147.3088836669922	44.05115127563477	-47.60666656494141	-114.3761596679688	41.86059188842773	-144.5579528808594	-281.8466186523438	44.7620849609375	-147.5877532958984	-387.0057067871094	469.4151916503906	9.537120819091797	-386.978759765625	723.8836059570312	42.81270217895508	-673.0048828125	166.28466796875	-125.2302856445312	-445.2571716308594	346.2507934570312	-21.72835540771484	-528.0153198242188	36.71331787109375	-125.5291061401367	-554.9719848632812	83.43508911132812	-173.6766052246094	-611.6539306640625	76.03099060058594	-93.03773498535156	-689.4593505859375	205.8661651611328	-180.7898101806641	
